<svg xmlns="http://www.w3.org/2000/svg" viewBox="0 0 222.38 177.08"><defs><style>.cls-1{fill:#fff;stroke:#000;stroke-miterlimit:10;}</style></defs><title>Logo</title><g id="Layer_2" data-name="Layer 2"><g id="Layer_1-2" data-name="Layer 1"><path class="cls-1" d="M17.43,136.23s-54-74.1,30.9-131.2c.8,0-47.8,50.9-10.8,98.8,20.8-.8,88-6.2,139.7-44.7C177.93,62.23,114.63,138.53,17.43,136.23Z"/><path class="cls-1" d="M27.43,149.33s88,2.3,194.4-104.9c1.5,1.5-30.1,69.4-103.4,101.1,8.5-1.5,21.6-2.3,55.6-23.9C175.63,123.13,120,223.43,27.43,149.33Z"/><path class="cls-1" d="M172.53,45.83a1.83,1.83,0,0,1-.8,1.3,288.45,288.45,0,0,1-54,28.1c-10.6,4.1-21.5,7.3-32.4,10.4-10.3,2.9-22.2,8.2-33,5.2,4.5-1.7,7.7-5.5,11.4-8.4,4.8-3.8,9.4-7.8,14.3-11.5,13.4-9.8,28.9-20.3,38.6-34,1.1-1.5,3-3.8,3.2-5.7.4-4.7-5.3-5.3-9.3-6.5a64.95,64.95,0,0,0-75,30.1c1.7-16.2,8-28,21.1-38,8.1-6.2,20.5-14.5,30.7-15.9,6.4-.9,13.4-.2,19.8.5,15.6,1.7,32.7,6,44.7,16.4C155.43,21,173.53,40,172.53,45.83Z"/><path class="cls-1" d="M45.93,60.63s17.7-33.9,60.2-27.8c1.5,1.5-6.2,17.7-55.6,46.3-2.3,0,27.8-20.8,25.5-26.2C76,52.93,67.53,47.53,45.93,60.63Z"/></g></g></svg>