<svg xmlns="http://www.w3.org/2000/svg" viewBox="0 0 229 184"><style>.st0{fill:#fff;stroke:#000;stroke-miterlimit:10}</style><g id="Layer_1"><path d="M.5.5h228v183H.5z"/><path d="M228 1v182H1V1h227m1-1H0v184h229V0z"/></g><g id="Layer_2"><path class="st0" d="M20.5 138.3s-54-74.1 30.9-131.2c.8 0-47.8 50.9-10.8 98.8 20.8-.8 88-6.2 139.7-44.7.7 3.1-62.6 79.4-159.8 77.1z"/><path class="st0" d="M30.5 151.4s88 2.3 194.4-104.9c1.5 1.5-30.1 69.4-103.4 101.1 8.5-1.5 21.6-2.3 55.6-23.9 1.6 1.5-54 101.8-146.6 27.7zM175.6 47.9c-.1.5-.3 1-.8 1.3-16.9 11.2-35.1 20.7-54 28.1-10.6 4.1-21.5 7.3-32.4 10.4-10.3 2.9-22.2 8.2-33 5.2 4.5-1.7 7.7-5.5 11.4-8.4 4.8-3.8 9.4-7.8 14.3-11.5 13.4-9.8 28.9-20.3 38.6-34 1.1-1.5 3-3.8 3.2-5.7.4-4.7-5.3-5.3-9.3-6.5-12.3-3.6-25.8-3.6-38.1.3C60 32 46.6 42.8 38.6 56.9c1.7-16.2 8-28 21.1-38C67.8 12.7 80.2 4.4 90.4 3c6.4-.9 13.4-.2 19.8.5 15.6 1.7 32.7 6 44.7 16.4 3.6 3.2 21.7 22.2 20.7 28z"/><path class="st0" d="M49 62.7s17.7-33.9 60.2-27.8c1.5 1.5-6.2 17.7-55.6 46.3-2.3 0 27.8-20.8 25.5-26.2 0 0-8.5-5.4-30.1 7.7z"/></g></svg>