<svg id="Layer_2" xmlns="http://www.w3.org/2000/svg" viewBox="0 0 304 70"><style>.st0{fill:#fff;stroke:#000;stroke-miterlimit:10}</style><path d="M0 0h304v70H0z"/><path class="st0" d="M9.3 49.9S-9.1 24.7 19.8 5.2c.3 0-16.3 17.4-3.7 33.6 7.1-.3 30-2.1 47.6-15.2.3 1-21.3 27.1-54.4 26.3z"/><path class="st0" d="M12.7 54.3s30 .8 66.2-35.8c.5.5-10.3 23.7-35.2 34.4 2.9-.5 7.4-.8 18.9-8.1.6.6-18.3 34.8-49.9 9.5zM62.2 19.1c0 .2-.1.3-.3.4-5.8 3.8-11.9 7.1-18.4 9.6-3.6 1.4-7.3 2.5-11 3.5-3.5 1-7.6 2.8-11.3 1.8 1.5-.6 2.6-1.9 3.9-2.9 1.6-1.3 3.2-2.7 4.9-3.9 4.5-3.4 9.8-6.9 13.1-11.6.4-.5 1-1.3 1.1-2 .2-1.6-1.8-1.8-3.2-2.2-4.2-1.2-8.8-1.2-13 .1-5.3 1.7-9.8 5.4-12.6 10.2.6-5.5 2.7-9.5 7.2-13 2.8-2.1 7-4.9 10.5-5.4 2.2-.3 4.6-.1 6.7.2C45.2 4.5 51 6 55.1 9.5c1.3 1.1 7.4 7.6 7.1 9.6z"/><path class="st0" d="M19 24.1s6-11.6 20.5-9.5c.5.5-2.1 6-18.9 15.8-.8 0 9.5-7.1 8.7-8.9 0 0-2.9-1.9-10.3 2.6z"/><text transform="matrix(.973 0 0 1 81.9937 43.3086)" font-size="38.7632" font-family="BritannicBold" fill="#fff">LearnPlanets</text></svg>