<?xml version="1.0" encoding="utf-8"?>
<!-- Generator: Adobe Illustrator 21.0.2, SVG Export Plug-In . SVG Version: 6.00 Build 0)  -->
<svg version="1.1" id="Layer_1" xmlns="http://www.w3.org/2000/svg" xmlns:xlink="http://www.w3.org/1999/xlink" x="0px" y="0px"
	 viewBox="0 0 229 184" style="enable-background:new 0 0 229 184;" xml:space="preserve">
<style type="text/css">
	.st0{fill:#FFFFFF;stroke:#000000;stroke-miterlimit:10;}
</style>
<g>
	<path class="st0" d="M20.7,139.7c0,0-54-74.1,30.9-131.2c0.8,0-47.8,50.9-10.8,98.8c20.8-0.8,88-6.2,139.7-44.7
		C181.2,65.7,117.9,142,20.7,139.7z"/>
	<path class="st0" d="M30.7,152.8c0,0,88,2.3,194.4-104.9c1.5,1.5-30.1,69.4-103.4,101.1c8.5-1.5,21.6-2.3,55.6-23.9
		C178.9,126.6,123.3,226.9,30.7,152.8z"/>
	<path class="st0" d="M175.8,49.3c-0.1,0.5-0.3,1-0.8,1.3c-16.9,11.2-35.1,20.7-54,28.1c-10.6,4.1-21.5,7.3-32.4,10.4
		c-10.3,2.9-22.2,8.2-33,5.2c4.5-1.7,7.7-5.5,11.4-8.4c4.8-3.8,9.4-7.8,14.3-11.5c13.4-9.8,28.9-20.3,38.6-34c1.1-1.5,3-3.8,3.2-5.7
		c0.4-4.7-5.3-5.3-9.3-6.5c-12.3-3.6-25.8-3.6-38.1,0.3c-15.5,4.9-28.9,15.7-36.9,29.8c1.7-16.2,8-28,21.1-38
		C68,14.1,80.4,5.8,90.6,4.4C97,3.5,104,4.2,110.4,4.9c15.6,1.7,32.7,6,44.7,16.4C158.7,24.5,176.8,43.5,175.8,49.3z"/>
	<path class="st0" d="M49.2,64.1c0,0,17.7-33.9,60.2-27.8c1.5,1.5-6.2,17.7-55.6,46.3c-2.3,0,27.8-20.8,25.5-26.2
		C79.3,56.4,70.8,51,49.2,64.1z"/>
</g>
</svg>
