<svg xmlns="http://www.w3.org/2000/svg" viewBox="0 0 304 240"><style>.st0{fill:#fff;stroke:#000;stroke-miterlimit:10}</style><g id="Layer_2"><path d="M0 0h304v240H0z"/><path class="st0" d="M58.5 138.3S4.5 64.2 89.4 7.1c.8 0-47.8 50.9-10.8 98.8 20.8-.8 88-6.2 139.7-44.7.7 3.1-62.6 79.4-159.8 77.1z"/><path class="st0" d="M68.5 151.4s88 2.3 194.4-104.9c1.5 1.5-30.1 69.4-103.4 101.1 8.5-1.5 21.6-2.3 55.6-23.9 1.6 1.5-54 101.8-146.6 27.7zM213.6 47.9c-.1.5-.3 1-.8 1.3-16.9 11.2-35.1 20.7-54 28.1-10.6 4.1-21.5 7.3-32.4 10.4-10.3 2.9-22.2 8.2-33 5.2 4.5-1.7 7.7-5.5 11.4-8.4 4.8-3.8 9.4-7.8 14.3-11.5 13.3-9.9 28.8-20.4 38.5-34.1 1.1-1.5 3-3.8 3.2-5.7.4-4.7-5.3-5.3-9.3-6.5-12.3-3.6-25.8-3.6-38.1.3C98 32 84.6 42.8 76.6 56.9c1.7-16.2 8-28 21.1-38 8.1-6.2 20.5-14.4 30.7-15.8 6.4-.9 13.4-.2 19.8.5 15.6 1.7 32.7 6 44.7 16.4 3.6 3.1 21.7 22.1 20.7 27.9z"/><path class="st0" d="M87 62.7s17.7-33.9 60.2-27.8c1.5 1.5-6.2 17.7-55.6 46.3-2.3 0 27.8-20.8 25.5-26.2 0 0-8.5-5.4-30.1 7.7z"/><text transform="matrix(.973 0 0 1 9.333 226.3101)" font-size="50.7613" font-family="BritannicBold" fill="#fff">LearnPlanets</text></g></svg>