<?xml version="1.0" encoding="utf-8"?>
<!-- Generator: Adobe Illustrator 21.0.2, SVG Export Plug-In . SVG Version: 6.00 Build 0)  -->
<svg version="1.1" id="Layer_1" xmlns="http://www.w3.org/2000/svg" xmlns:xlink="http://www.w3.org/1999/xlink" x="0px" y="0px"
	 viewBox="0 0 304 240" style="enable-background:new 0 0 304 240;" xml:space="preserve">
<style type="text/css">
	.st0{fill:#FFFFFF;stroke:#000000;stroke-miterlimit:10;}
	.st1{font-family:'BritannicBold';}
	.st2{font-size:50.7613px;}
</style>
<g>
	<path class="st0" d="M59.9,140c0,0-54-74.1,30.9-131.2c0.8,0-47.8,50.9-10.8,98.8c20.8-0.8,88-6.2,139.7-44.7
		C220.4,66,157.1,142.3,59.9,140z"/>
	<path class="st0" d="M69.9,153.1c0,0,88,2.3,194.4-104.9c1.5,1.5-30.1,69.4-103.4,101.1c8.5-1.5,21.6-2.3,55.6-23.9
		C218.1,126.9,162.5,227.2,69.9,153.1z"/>
	<path class="st0" d="M215,49.6c-0.1,0.5-0.3,1-0.8,1.3c-16.9,11.2-35.1,20.7-54,28.1c-10.6,4.1-21.5,7.3-32.4,10.4
		c-10.3,2.9-22.2,8.2-33,5.2c4.5-1.7,7.7-5.5,11.4-8.4c4.8-3.8,9.4-7.8,14.3-11.5c13.3-9.9,28.8-20.4,38.5-34.1
		c1.1-1.5,3-3.8,3.2-5.7c0.4-4.7-5.3-5.3-9.3-6.5c-12.3-3.6-25.8-3.6-38.1,0.3C99.4,33.7,86,44.5,78,58.6c1.7-16.2,8-28,21.1-38
		c8.1-6.2,20.5-14.4,30.7-15.8c6.4-0.9,13.4-0.2,19.8,0.5c15.6,1.7,32.7,6,44.7,16.4C197.9,24.8,216,43.8,215,49.6z"/>
	<path class="st0" d="M88.4,64.4c0,0,17.7-33.9,60.2-27.8c1.5,1.5-6.2,17.7-55.6,46.3c-2.3,0,27.8-20.8,25.5-26.2
		C118.5,56.7,110,51.3,88.4,64.4z"/>
</g>
<text transform="matrix(0.973 0 0 1 10.715 227.9916)" class="st0 st1 st2">LearnPlanets</text>
</svg>
