<?xml version="1.0" encoding="utf-8"?>
<!-- Generator: Adobe Illustrator 21.0.2, SVG Export Plug-In . SVG Version: 6.00 Build 0)  -->
<svg version="1.1" id="Layer_2" xmlns="http://www.w3.org/2000/svg" xmlns:xlink="http://www.w3.org/1999/xlink" x="0px" y="0px"
	 viewBox="0 0 304 70" style="enable-background:new 0 0 304 70;" xml:space="preserve">
<style type="text/css">
	.st0{fill:#FFFFFF;stroke:#000000;stroke-miterlimit:10;}
	.st1{font-family:'BritannicBold';}
	.st2{font-size:38.7632px;}
</style>
<g>
	<path class="st0" d="M9.3,49.9c0,0-18.4-25.2,10.5-44.7c0.3,0-16.3,17.4-3.7,33.6c7.1-0.3,30-2.1,47.6-15.2
		C64,24.6,42.4,50.7,9.3,49.9z"/>
	<path class="st0" d="M12.7,54.3c0,0,30,0.8,66.2-35.8c0.5,0.5-10.3,23.7-35.2,34.4c2.9-0.5,7.4-0.8,18.9-8.1
		C63.2,45.4,44.3,79.6,12.7,54.3z"/>
	<path class="st0" d="M62.2,19.1c0,0.2-0.1,0.3-0.3,0.4c-5.8,3.8-11.9,7.1-18.4,9.6c-3.6,1.4-7.3,2.5-11,3.5
		c-3.5,1-7.6,2.8-11.3,1.8c1.5-0.6,2.6-1.9,3.9-2.9c1.6-1.3,3.2-2.7,4.9-3.9c4.5-3.4,9.8-6.9,13.1-11.6c0.4-0.5,1-1.3,1.1-2
		c0.2-1.6-1.8-1.8-3.2-2.2c-4.2-1.2-8.8-1.2-13,0.1c-5.3,1.7-9.8,5.4-12.6,10.2c0.6-5.5,2.7-9.5,7.2-13c2.8-2.1,7-4.9,10.5-5.4
		c2.2-0.3,4.6-0.1,6.7,0.2C45.2,4.5,51,6,55.1,9.5C56.4,10.6,62.5,17.1,62.2,19.1z"/>
	<path class="st0" d="M19,24.1c0,0,6-11.6,20.5-9.5c0.5,0.5-2.1,6-18.9,15.8c-0.8,0,9.5-7.1,8.7-8.9C29.3,21.5,26.4,19.6,19,24.1z"
		/>
</g>
<text transform="matrix(0.973 0 0 1 81.9937 43.3086)" class="st0 st1 st2">LearnPlanets</text>
</svg>
