<svg xmlns="http://www.w3.org/2000/svg" viewBox="0 0 30.23 68.89"><defs><style>.cls-1,.cls-9{fill:#658089;}.cls-2{fill:#fff;}.cls-10,.cls-2,.cls-4,.cls-5,.cls-6,.cls-7,.cls-9{fill-rule:evenodd;}.cls-3,.cls-4{fill:#00000e;}.cls-5{fill:#af593f;}.cls-6,.cls-8{fill:#77aca9;}.cls-7{fill:#fef3a9;}.cls-10{fill:#c3724e;}</style></defs><title>Rocket</title><g id="Layer_2" data-name="Layer 2"><g id="_11" data-name="11"><rect class="cls-1" x="11.11" y="61.06" width="7.9" height="2.55"/><path class="cls-2" d="M23,13.13l2.46,6.33V53.07H20.51V19.46Z"/><rect class="cls-3" x="20.51" y="19.46" width="4.92" height="1.06"/><rect class="cls-3" x="20.51" y="28.32" width="4.92" height="0.36"/><rect class="cls-3" x="20.51" y="23.19" width="4.92" height="0.36"/><rect class="cls-3" x="20.51" y="38.08" width="4.92" height="0.36"/><polygon class="cls-4" points="24.49 48.47 24.33 48.3 24.17 48.11 25.42 48.11 25.42 48.47 24.49 48.47"/><path class="cls-2" d="M6.73,13.13,4.27,19.46V53.07H9.19V19.46Z"/><path class="cls-5" d="M15.06,0A25.7,25.7,0,0,0,12,4.66a20.31,20.31,0,0,0-1.68,6A88.51,88.51,0,0,0,10.05,21V47.17h10V21c0-6.09,0-8.26-.28-10.38a20.31,20.31,0,0,0-1.67-6A25.74,25.74,0,0,0,15.06,0Z"/><path class="cls-2" d="M15.06,19.33a.91.91,0,0,0-.47.15c-.18.12-.4.34-1,1.5a21.91,21.91,0,0,0-1.84,5.55c-.4,2.28-.31,4.75-.65,8a27.29,27.29,0,0,1-3,10.56C6.28,48.32,0,51.89,0,56.25v2.3c5.05,1.27,9.92,2.2,15.06,3.06l15.17-2.85v-2a6.22,6.22,0,0,0-1.85-4.19c-1.57-1.84-4.53-4.2-6.4-7.41a27.29,27.29,0,0,1-3-10.56c-.35-3.27-.25-5.74-.65-8A22.74,22.74,0,0,0,16.5,21c-.56-1.16-.79-1.38-1-1.5A.86.86,0,0,0,15.06,19.33Z"/><path class="cls-6" d="M15.06,54.33h0a.24.24,0,0,1,.24.24V68.65a.24.24,0,0,1-.24.24h0a.24.24,0,0,1-.24-.24V54.57A.24.24,0,0,1,15.06,54.33Z"/><path class="cls-7" d="M4.9,63.34c-.27,1-.55,2.08-.83,3.12h6c-.27-1-.55-2.08-.83-3.12Z"/><path class="cls-4" d="M13.09,22.19H17c-.19-.47-.38-.88-.53-1.21s-.3-.6-.42-.8H14c-.11.2-.24.46-.41.8S13.29,21.72,13.09,22.19Z"/><path class="cls-4" d="M12.35,28.12H13a2.16,2.16,0,0,1,4.14,0h.65A2.74,2.74,0,0,0,12.35,28.12Z"/><rect class="cls-3" x="14.12" y="28.99" width="1.89" height="0.93" rx="0.19"/><path class="cls-6" d="M9.23,60.57C7.78,60.3,6.34,60,4.9,59.69v3.65H9.23Z"/><rect class="cls-8" x="4.9" y="66.46" width="4.33" height="2.3"/><path class="cls-7" d="M11.44,54.42a1.61,1.61,0,0,0-1,.69,5.55,5.55,0,0,0-.61,2.33c-.12,1.13-.14,2.63-.15,4.12h4.06V54.42Z"/><path class="cls-7" d="M18.67,54.42a1.64,1.64,0,0,1,1,.69,5.55,5.55,0,0,1,.61,2.33c.12,1.13.13,2.63.15,4.12H16.36V54.42Z"/><path class="cls-4" d="M20.14,56.53a4.21,4.21,0,0,1,.09.55h9.21c0-.19,0-.37-.05-.55Z"/><path class="cls-4" d="M9.88,57.08c0-.2,0-.38.08-.55H.74c0,.18,0,.36-.05.55Z"/><path class="cls-9" d="M20.27,57.44c.09.89.12,2,.14,3.17l9.82-1.85v-2a6.22,6.22,0,0,0-1.85-4.19c-1.57-1.84-4.53-4.2-6.4-7.41a20.9,20.9,0,0,1-2-5.12,19,19,0,0,0,.79,4.76,11.16,11.16,0,0,0,3,4.15c1.53,1.47,3.67,3.2,4.73,4.87a6.72,6.72,0,0,1,1,2.76c0,.18,0,.36.05.55H20.23C20.25,57.2,20.26,57.32,20.27,57.44Z"/><path class="cls-9" d="M.74,56.53a6.44,6.44,0,0,1,1-2.76c1.06-1.67,3.2-3.4,4.72-4.87a11.09,11.09,0,0,0,3-4.15A18.51,18.51,0,0,0,10.18,40a20.88,20.88,0,0,1-2,5.12C6.28,48.32,0,51.89,0,56.25v2.3l.66.16c1.42.36,2.84.68,4.24,1s2.88.61,4.33.88l.47.09c0-1.18,0-2.32.14-3.22,0-.12,0-.24,0-.36H.69C.7,56.89.72,56.71.74,56.53Z"/><path class="cls-6" d="M1.7,53.77a6.44,6.44,0,0,0-1,2.76H10a3.91,3.91,0,0,1,.49-1.42,1.61,1.61,0,0,1,1-.69V30.13c-.07,1.32-.13,2.77-.3,4.42a37.61,37.61,0,0,1-1,5.44,18.51,18.51,0,0,1-.78,4.76,11.09,11.09,0,0,1-3,4.15C4.9,50.37,2.76,52.1,1.7,53.77Z"/><path class="cls-6" d="M19.66,55.11a3.93,3.93,0,0,1,.48,1.42h9.25a6.72,6.72,0,0,0-1-2.76c-1.06-1.67-3.2-3.4-4.73-4.87a11.16,11.16,0,0,1-3-4.15A19,19,0,0,1,19.94,40a36.21,36.21,0,0,1-1-5.44c-.19-1.79-.25-3.34-.32-4.75V54.42A1.64,1.64,0,0,1,19.66,55.11Z"/><path class="cls-7" d="M25.23,63.28l.84,3.12h-6l.84-3.12Z"/><polygon class="cls-6" points="20.91 60.51 25.23 59.7 25.23 63.28 20.91 63.28 20.91 60.51"/><rect class="cls-3" x="4.27" y="19.46" width="4.92" height="1.06"/><rect class="cls-3" x="4.27" y="28.32" width="4.92" height="0.36"/><rect class="cls-3" x="4.27" y="23.19" width="4.92" height="0.36"/><rect class="cls-3" x="4.27" y="38.08" width="4.92" height="0.36"/><path class="cls-4" d="M5.21,48.47l.35-.36H4.27v.36Z"/><path class="cls-10" d="M18,24.8h2.08V21c0-1.69,0-3.08,0-4.24h-10v8h2.13a21.76,21.76,0,0,1,.91-2.61c.2-.47.38-.88.54-1.21s.3-.6.41-.8a1.83,1.83,0,0,1,.55-.7.91.91,0,0,1,.47-.15.86.86,0,0,1,.47.15,1.74,1.74,0,0,1,.55.7c.12.2.25.46.42.8s.34.74.53,1.21.3.74.45,1.16.32.94.46,1.45Z"/><rect class="cls-8" x="20.91" y="66.4" width="4.33" height="2.31"/></g></g></svg>